<svg xmlns="http://www.w3.org/2000/svg" version="1.1" xmlns:xlink="http://www.w3.org/1999/xlink" xmlns:svgjs="http://svgjs.dev/svgjs" width="1000" height="623" viewBox="0 0 1000 623"><g transform="matrix(1,0,0,1,-0.6060606060606233,0.2522267206477409)"><svg viewBox="0 0 396 247" data-background-color="#046380" preserveAspectRatio="xMidYMid meet" height="623" width="1000" xmlns="http://www.w3.org/2000/svg" xmlns:xlink="http://www.w3.org/1999/xlink"><g id="tight-bounds" transform="matrix(1,0,0,1,0.2400000000000091,-0.09999999999999432)"><svg viewBox="0 0 395.52 247.2" height="247.2" width="395.52"><g><svg></svg></g><g><svg viewBox="0 0 395.52 247.2" height="247.2" width="395.52"><g transform="matrix(1,0,0,1,39.55199999999999,105.30565660770031)"><svg viewBox="0 0 316.416 36.58868678459937" height="36.58868678459937" width="316.416"><g><svg viewBox="0 0 316.416 36.58868678459937" height="36.58868678459937" width="316.416"><g><svg viewBox="0 0 316.416 36.58868678459937" height="36.58868678459937" width="316.416"><g><svg viewBox="0 0 316.416 36.58868678459937" height="36.58868678459937" width="316.416"><g id="textblocktransform"><svg viewBox="0 0 316.416 36.58868678459937" height="36.58868678459937" width="316.416" id="textblock"><g><svg viewBox="0 0 316.416 36.58868678459937" height="36.58868678459937" width="316.416"><g transform="matrix(1,0,0,1,0,0)"><svg width="316.416" viewBox="-0.40000009536743164 -40.900001525878906 385.3699951171875 45.45000076293945" height="36.58868678459937" data-palette-color="#ffffff"><path d="M32.65-18.1L32.65-18.1Q32.65-12.85 30.88-8.78 29.1-4.7 25.45-2.35 21.8 0 16.15 0L16.15 0 4.3 0 4.3-33.1Q4.3-33.15 4.13-33.9 3.95-34.65 3.8-35.45 3.65-36.25 3.6-36.4L3.6-36.4 12.95-36.4Q19.05-36.4 23.45-34.58 27.85-32.75 30.25-28.73 32.65-24.7 32.65-18.1ZM27.8-18.2L27.8-18.2Q27.8-22.15 26.83-24.95 25.85-27.75 23.93-29.53 22-31.3 19.18-32.13 16.35-32.95 12.6-32.95L12.6-32.95 8.95-32.95 8.95-3.45 15.55-3.45Q20.1-3.45 22.78-5.45 25.45-7.45 26.63-10.8 27.8-14.15 27.8-18.2ZM53.35 0.55L53.35 0.55Q49.3 0.55 46.27-0.95 43.25-2.45 41.25-5.08 39.25-7.7 38.25-11.05 37.25-14.4 37.25-18.15L37.25-18.15Q37.25-21.9 38.22-25.28 39.2-28.65 41.2-31.28 43.2-33.9 46.25-35.4 49.3-36.9 53.4-36.9L53.4-36.9Q57.5-36.9 60.52-35.4 63.55-33.9 65.55-31.28 67.55-28.65 68.52-25.28 69.5-21.9 69.5-18.15L69.5-18.15Q69.5-14.4 68.5-11.03 67.5-7.65 65.5-5.05 63.5-2.45 60.47-0.95 57.45 0.55 53.35 0.55ZM53.4-2.85L53.4-2.85Q56.6-2.85 58.75-4.2 60.9-5.55 62.2-7.8 63.5-10.05 64.07-12.75 64.65-15.45 64.65-18.15L64.65-18.15Q64.65-20.85 64.07-23.55 63.5-26.25 62.2-28.48 60.9-30.7 58.72-32.05 56.55-33.4 53.4-33.4L53.4-33.4Q50.25-33.4 48.07-32.05 45.9-30.7 44.62-28.45 43.35-26.2 42.77-23.5 42.2-20.8 42.2-18.1L42.2-18.1Q42.2-15.4 42.77-12.73 43.35-10.05 44.62-7.8 45.9-5.55 48.07-4.2 50.25-2.85 53.4-2.85ZM75.45-36.4L81.65-36.4 97.55-11.95Q98-11.25 98.5-10.48 99-9.7 99.5-9L99.5-9Q99.45-9.85 99.4-10.73 99.35-11.6 99.35-12.4L99.35-12.4 99.35-36.4 103.15-36.4 103.15 0.25 100.2 0.25 81.65-28.15Q81.25-28.8 80.77-29.53 80.3-30.25 79.8-30.9L79.8-30.9Q79.9-30.1 79.92-29.28 79.95-28.45 79.95-27.65L79.95-27.65 79.95 0 76.15 0 76.15-33.1 75.45-36.4ZM121.04-36.4L125.59-36.4 138.19 0 133.04 0 128.84-12.5 116.84-12.5 112.59 0 108.39 0 121.04-36.4ZM127.69-15.9L122.89-30.3 117.99-15.9 127.69-15.9ZM146.19 0L146.19-32.95 135.39-32.95 135.39-36.4 161.89-36.4 161.89-32.95 150.94-32.95 150.94 0 146.19 0ZM166.74-36.4L166.74-36.4 172.09-36.4 172.09 0 167.44 0 167.44-33.1Q167.44-33.15 167.26-33.9 167.09-34.65 166.94-35.45 166.79-36.25 166.74-36.4ZM194.89 0.55L194.89 0.55Q190.84 0.55 187.81-0.95 184.79-2.45 182.79-5.08 180.79-7.7 179.79-11.05 178.79-14.4 178.79-18.15L178.79-18.15Q178.79-21.9 179.76-25.28 180.74-28.65 182.74-31.28 184.74-33.9 187.79-35.4 190.84-36.9 194.94-36.9L194.94-36.9Q199.04-36.9 202.06-35.4 205.09-33.9 207.09-31.28 209.09-28.65 210.06-25.28 211.04-21.9 211.04-18.15L211.04-18.15Q211.04-14.4 210.04-11.03 209.04-7.65 207.04-5.05 205.04-2.45 202.01-0.95 198.99 0.55 194.89 0.55ZM194.94-2.85L194.94-2.85Q198.14-2.85 200.29-4.2 202.44-5.55 203.74-7.8 205.04-10.05 205.61-12.75 206.19-15.45 206.19-18.15L206.19-18.15Q206.19-20.85 205.61-23.55 205.04-26.25 203.74-28.48 202.44-30.7 200.26-32.05 198.09-33.4 194.94-33.4L194.94-33.4Q191.79-33.4 189.61-32.05 187.44-30.7 186.16-28.45 184.89-26.2 184.31-23.5 183.74-20.8 183.74-18.1L183.74-18.1Q183.74-15.4 184.31-12.73 184.89-10.05 186.16-7.8 187.44-5.55 189.61-4.2 191.79-2.85 194.94-2.85ZM216.98-36.4L223.18-36.4 239.08-11.95Q239.53-11.25 240.03-10.48 240.53-9.7 241.03-9L241.03-9Q240.98-9.85 240.93-10.73 240.88-11.6 240.88-12.4L240.88-12.4 240.88-36.4 244.68-36.4 244.68 0.25 241.73 0.25 223.18-28.15Q222.78-28.8 222.31-29.53 221.83-30.25 221.33-30.9L221.33-30.9Q221.43-30.1 221.46-29.28 221.48-28.45 221.48-27.65L221.48-27.65 221.48 0 217.68 0 217.68-33.1 216.98-36.4ZM293.18-18.1L293.18-18.1Q293.18-12.85 291.4-8.78 289.63-4.7 285.98-2.35 282.33 0 276.68 0L276.68 0 264.83 0 264.83-33.1Q264.83-33.15 264.65-33.9 264.48-34.65 264.33-35.45 264.18-36.25 264.13-36.4L264.13-36.4 273.48-36.4Q279.58-36.4 283.98-34.58 288.38-32.75 290.78-28.73 293.18-24.7 293.18-18.1ZM288.33-18.2L288.33-18.2Q288.33-22.15 287.35-24.95 286.38-27.75 284.45-29.53 282.53-31.3 279.7-32.13 276.88-32.95 273.13-32.95L273.13-32.95 269.48-32.95 269.48-3.45 276.08-3.45Q280.63-3.45 283.3-5.45 285.98-7.45 287.15-10.8 288.33-14.15 288.33-18.2ZM307.53-36.4L312.08-36.4 324.68 0 319.53 0 315.33-12.5 303.33-12.5 299.08 0 294.88 0 307.53-36.4ZM314.18-15.9L309.38-30.3 304.48-15.9 314.18-15.9ZM329.82-33.1L329.07-36.4 339.97-36.4Q343.57-36.4 346.35-35.27 349.12-34.15 350.67-31.75 352.22-29.35 352.22-25.4L352.22-25.4Q352.22-21.75 350.57-19.3 348.92-16.85 346.17-15.63 343.42-14.4 340.02-14.4L340.02-14.4 334.47-14.4 334.47 0 329.82 0 329.82-33.1ZM339.97-32.95L334.47-32.95 334.47-17.8 339.92-17.8Q343.37-17.8 345.37-19.9 347.37-22 347.37-25.4L347.37-25.4Q347.37-28.95 345.47-30.95 343.57-32.95 339.97-32.95L339.97-32.95ZM358.57-33.1L357.82-36.4 368.72-36.4Q372.32-36.4 375.1-35.27 377.87-34.15 379.42-31.75 380.97-29.35 380.97-25.4L380.97-25.4Q380.97-21.75 379.32-19.3 377.67-16.85 374.92-15.63 372.17-14.4 368.77-14.4L368.77-14.4 363.22-14.4 363.22 0 358.57 0 358.57-33.1ZM368.72-32.95L363.22-32.95 363.22-17.8 368.67-17.8Q372.12-17.8 374.12-19.9 376.12-22 376.12-25.4L376.12-25.4Q376.12-28.95 374.22-30.95 372.32-32.95 368.72-32.95L368.72-32.95Z" opacity="1" transform="matrix(1,0,0,1,0,0)" fill="#ffffff" class="undefined-text-0" data-fill-palette-color="primary" id="text-0"></path></svg></g></svg></g></svg></g></svg></g><g></g></svg></g></svg></g></svg></g><g mask="url(#72e2276e-2d6a-4048-a4eb-00f73fc953e2)"><g transform="matrix(2.5068241555390856, 0, 0, 2.5068241555390856, 102.89425723054228, 0.9999999999999858)"><svg xmlns="http://www.w3.org/2000/svg" xmlns:xlink="http://www.w3.org/1999/xlink" version="1.1" x="0" y="0" viewBox="12.982999801635742 1 75.68599700927734 97.81300354003906" enable-background="new 0 0 100 100" xml:space="preserve" height="97.81300354003906" width="75.68599700927734" class="icon-none" data-fill-palette-color="accent" id="none"><g fill="#ffffff" data-fill-palette-color="accent"><polygon fill-rule="evenodd" clip-rule="evenodd" points="12.983,10.59 30.001,98.813 24.129,39.764 53.15,37.872 53.096,27.989    64.549,1 53.622,18.977  " fill="#ffffff" data-fill-palette-color="accent"></polygon><polygon fill-rule="evenodd" clip-rule="evenodd" points="59.389,54.548 64.549,1.007 55.809,40.723 36.197,41.768 37.767,62.23    30.001,98.813 42.058,58.914  " fill="#ffffff" data-fill-palette-color="accent"></polygon><polygon fill-rule="evenodd" clip-rule="evenodd" points="62.8,67.182 63.349,56.729 47.37,60.484 47.338,72.281 30.001,98.813    51.681,71.197  " fill="#ffffff" data-fill-palette-color="accent"></polygon><polygon fill-rule="evenodd" clip-rule="evenodd" points="65.711,62.394 80.552,57.663 82.061,45.131 66.162,47.226  " fill="#ffffff" data-fill-palette-color="accent"></polygon><polygon fill-rule="evenodd" clip-rule="evenodd" points="72.07,44.502 83.058,43.085 84.639,32.807 76.56,32.434 64.549,1    72.979,31.967  " fill="#ffffff" data-fill-palette-color="accent"></polygon><polygon fill-rule="evenodd" clip-rule="evenodd" points="87.413,31.294 88.669,21.788 79.125,19.094 64.549,1 79.032,23.437    78.61,30.437  " fill="#ffffff" data-fill-palette-color="accent"></polygon></g></svg></g></g><mask id="72e2276e-2d6a-4048-a4eb-00f73fc953e2"><rect width="640" height="400" fill="white"></rect><g transform="matrix(1,0,0,1,39.55199999999999,105.30565660770031)"><svg viewBox="0 0 316.416 36.58868678459937" height="36.58868678459937" width="316.416"><g><svg viewBox="0 0 316.416 36.58868678459937" height="36.58868678459937" width="316.416"><g><svg viewBox="0 0 316.416 36.58868678459937" height="36.58868678459937" width="316.416"><g><svg viewBox="0 0 316.416 36.58868678459937" height="36.58868678459937" width="316.416"><g id="SvgjsG1168"><svg viewBox="0 0 316.416 36.58868678459937" height="36.58868678459937" width="316.416" id="SvgjsSvg1167"><g><svg viewBox="0 0 316.416 36.58868678459937" height="36.58868678459937" width="316.416"><g transform="matrix(1,0,0,1,0,0)"><svg width="316.416" viewBox="-0.40000009536743164 -40.900001525878906 385.3699951171875 45.45000076293945" height="36.58868678459937" data-palette-color="#ffffff"><path d="M32.65-18.1L32.65-18.1Q32.65-12.85 30.88-8.78 29.1-4.7 25.45-2.35 21.8 0 16.15 0L16.15 0 4.3 0 4.3-33.1Q4.3-33.15 4.13-33.9 3.95-34.65 3.8-35.45 3.65-36.25 3.6-36.4L3.6-36.4 12.95-36.4Q19.05-36.4 23.45-34.58 27.85-32.75 30.25-28.73 32.65-24.7 32.65-18.1ZM27.8-18.2L27.8-18.2Q27.8-22.15 26.83-24.95 25.85-27.75 23.93-29.53 22-31.3 19.18-32.13 16.35-32.95 12.6-32.95L12.6-32.95 8.95-32.95 8.95-3.45 15.55-3.45Q20.1-3.45 22.78-5.45 25.45-7.45 26.63-10.8 27.8-14.15 27.8-18.2ZM53.35 0.55L53.35 0.55Q49.3 0.55 46.27-0.95 43.25-2.45 41.25-5.08 39.25-7.7 38.25-11.05 37.25-14.4 37.25-18.15L37.25-18.15Q37.25-21.9 38.22-25.28 39.2-28.65 41.2-31.28 43.2-33.9 46.25-35.4 49.3-36.9 53.4-36.9L53.4-36.9Q57.5-36.9 60.52-35.4 63.55-33.9 65.55-31.28 67.55-28.65 68.52-25.28 69.5-21.9 69.5-18.15L69.5-18.15Q69.5-14.4 68.5-11.03 67.5-7.65 65.5-5.05 63.5-2.45 60.47-0.95 57.45 0.55 53.35 0.55ZM53.4-2.85L53.4-2.85Q56.6-2.85 58.75-4.2 60.9-5.55 62.2-7.8 63.5-10.05 64.07-12.75 64.65-15.45 64.65-18.15L64.65-18.15Q64.65-20.85 64.07-23.55 63.5-26.25 62.2-28.48 60.9-30.7 58.72-32.05 56.55-33.4 53.4-33.4L53.4-33.4Q50.25-33.4 48.07-32.05 45.9-30.7 44.62-28.45 43.35-26.2 42.77-23.5 42.2-20.8 42.2-18.1L42.2-18.1Q42.2-15.4 42.77-12.73 43.35-10.05 44.62-7.8 45.9-5.55 48.07-4.2 50.25-2.85 53.4-2.85ZM75.45-36.4L81.65-36.4 97.55-11.95Q98-11.25 98.5-10.48 99-9.7 99.5-9L99.5-9Q99.45-9.85 99.4-10.73 99.35-11.6 99.35-12.4L99.35-12.4 99.35-36.4 103.15-36.4 103.15 0.25 100.2 0.25 81.65-28.15Q81.25-28.8 80.77-29.53 80.3-30.25 79.8-30.9L79.8-30.9Q79.9-30.1 79.92-29.28 79.95-28.45 79.95-27.65L79.95-27.65 79.95 0 76.15 0 76.15-33.1 75.45-36.4ZM121.04-36.4L125.59-36.4 138.19 0 133.04 0 128.84-12.5 116.84-12.5 112.59 0 108.39 0 121.04-36.4ZM127.69-15.9L122.89-30.3 117.99-15.9 127.69-15.9ZM146.19 0L146.19-32.95 135.39-32.95 135.39-36.4 161.89-36.4 161.89-32.95 150.94-32.95 150.94 0 146.19 0ZM166.74-36.4L166.74-36.4 172.09-36.4 172.09 0 167.44 0 167.44-33.1Q167.44-33.15 167.26-33.9 167.09-34.65 166.94-35.45 166.79-36.25 166.74-36.4ZM194.89 0.55L194.89 0.55Q190.84 0.55 187.81-0.95 184.79-2.45 182.79-5.08 180.79-7.7 179.79-11.05 178.79-14.4 178.79-18.15L178.79-18.15Q178.79-21.9 179.76-25.28 180.74-28.65 182.74-31.28 184.74-33.9 187.79-35.4 190.84-36.9 194.94-36.9L194.94-36.9Q199.04-36.9 202.06-35.4 205.09-33.9 207.09-31.28 209.09-28.65 210.06-25.28 211.04-21.9 211.04-18.15L211.04-18.15Q211.04-14.4 210.04-11.03 209.04-7.65 207.04-5.05 205.04-2.45 202.01-0.95 198.99 0.55 194.89 0.55ZM194.94-2.85L194.94-2.85Q198.14-2.85 200.29-4.2 202.44-5.55 203.74-7.8 205.04-10.05 205.61-12.75 206.19-15.45 206.19-18.15L206.19-18.15Q206.19-20.85 205.61-23.55 205.04-26.25 203.74-28.48 202.44-30.7 200.26-32.05 198.09-33.4 194.94-33.4L194.94-33.4Q191.79-33.4 189.61-32.05 187.44-30.7 186.16-28.45 184.89-26.2 184.31-23.5 183.74-20.8 183.74-18.1L183.74-18.1Q183.74-15.4 184.31-12.73 184.89-10.05 186.16-7.8 187.44-5.55 189.61-4.2 191.79-2.85 194.94-2.85ZM216.98-36.4L223.18-36.4 239.08-11.95Q239.53-11.25 240.03-10.48 240.53-9.7 241.03-9L241.03-9Q240.98-9.85 240.93-10.73 240.88-11.6 240.88-12.4L240.88-12.4 240.88-36.4 244.68-36.4 244.68 0.25 241.73 0.25 223.18-28.15Q222.78-28.8 222.31-29.53 221.83-30.25 221.33-30.9L221.33-30.9Q221.43-30.1 221.46-29.28 221.48-28.45 221.48-27.65L221.48-27.65 221.48 0 217.68 0 217.68-33.1 216.98-36.4ZM293.18-18.1L293.18-18.1Q293.18-12.85 291.4-8.78 289.63-4.7 285.98-2.35 282.33 0 276.68 0L276.68 0 264.83 0 264.83-33.1Q264.83-33.15 264.65-33.9 264.48-34.65 264.33-35.45 264.18-36.25 264.13-36.4L264.13-36.4 273.48-36.4Q279.58-36.4 283.98-34.58 288.38-32.75 290.78-28.73 293.18-24.7 293.18-18.1ZM288.33-18.2L288.33-18.2Q288.33-22.15 287.35-24.95 286.38-27.75 284.45-29.53 282.53-31.3 279.7-32.13 276.88-32.95 273.13-32.95L273.13-32.95 269.48-32.95 269.48-3.45 276.08-3.45Q280.63-3.45 283.3-5.45 285.98-7.45 287.15-10.8 288.33-14.15 288.33-18.2ZM307.53-36.4L312.08-36.4 324.68 0 319.53 0 315.33-12.5 303.33-12.5 299.08 0 294.88 0 307.53-36.4ZM314.18-15.9L309.38-30.3 304.48-15.9 314.18-15.9ZM329.82-33.1L329.07-36.4 339.97-36.4Q343.57-36.4 346.35-35.27 349.12-34.15 350.67-31.75 352.22-29.35 352.22-25.4L352.22-25.4Q352.22-21.75 350.57-19.3 348.92-16.85 346.17-15.63 343.42-14.4 340.02-14.4L340.02-14.4 334.47-14.4 334.47 0 329.82 0 329.82-33.1ZM339.97-32.95L334.47-32.95 334.47-17.8 339.92-17.8Q343.37-17.8 345.37-19.9 347.37-22 347.37-25.4L347.37-25.4Q347.37-28.95 345.47-30.95 343.57-32.95 339.97-32.95L339.97-32.95ZM358.57-33.1L357.82-36.4 368.72-36.4Q372.32-36.4 375.1-35.27 377.87-34.15 379.42-31.75 380.97-29.35 380.97-25.4L380.97-25.4Q380.97-21.75 379.32-19.3 377.67-16.85 374.92-15.63 372.17-14.4 368.77-14.4L368.77-14.4 363.22-14.4 363.22 0 358.57 0 358.57-33.1ZM368.72-32.95L363.22-32.95 363.22-17.8 368.67-17.8Q372.12-17.8 374.12-19.9 376.12-22 376.12-25.4L376.12-25.4Q376.12-28.95 374.22-30.95 372.32-32.95 368.72-32.95L368.72-32.95Z" opacity="1" transform="matrix(1,0,0,1,0,0)" fill="#ffffff" class="undefined-text-0" data-fill-palette-color="primary" id="SvgjsPath1166" stroke-width="7" stroke="black" stroke-linejoin="round"></path></svg></g></svg></g></svg></g></svg></g><g></g></svg></g></svg></g></svg></g></mask></svg></g><defs></defs></svg><rect width="395.52" height="247.2" fill="none" stroke="none" visibility="hidden"></rect></g></svg></g></svg>