<svg xmlns="http://www.w3.org/2000/svg" version="1.1" xmlns:xlink="http://www.w3.org/1999/xlink" xmlns:svgjs="http://svgjs.dev/svgjs" width="1000" height="1000" viewBox="0 0 1000 1000"><g transform="matrix(1,0,0,1,-0.14221556886212738,-0.14221556886229791)"><svg viewBox="0 0 334 334" data-background-color="#ffffff" preserveAspectRatio="xMidYMid meet" height="1000" width="1000" xmlns="http://www.w3.org/2000/svg" xmlns:xlink="http://www.w3.org/1999/xlink"><g id="tight-bounds" transform="matrix(1,0,0,1,0.04749999999998522,0.04750000000001364)"><svg viewBox="0 0 333.90454557049503 333.90454557049503" height="333.90454557049503" width="333.90454557049503"><g><svg></svg></g><g><svg viewBox="0 0 333.90454557049503 333.90454557049503" height="333.90454557049503" width="333.90454557049503"><g><path d="M0 166.952c0-92.205 74.747-166.952 166.952-166.952 92.205 0 166.952 74.747 166.953 166.952 0 92.205-74.747 166.952-166.953 166.953-92.205 0-166.952-74.747-166.952-166.953zM166.952 325.936c87.804 0 158.984-71.179 158.984-158.984 0-87.804-71.179-158.984-158.984-158.983-87.804 0-158.984 71.179-158.983 158.983 0 87.804 71.179 158.984 158.983 158.984z" data-fill-palette-color="tertiary" fill="#61777f" stroke="transparent"></path><ellipse rx="160.27418187383762" ry="160.27418187383762" cx="166.95227278524752" cy="166.95227278524752" fill="#61777f" stroke="transparent" stroke-width="0" fill-opacity="1" data-fill-palette-color="tertiary"></ellipse></g><g transform="matrix(1,0,0,1,100.33784069775099,71.17305217166896)"><svg viewBox="0 0 133.22886417499305 191.55844122715712" height="191.55844122715712" width="133.22886417499305"><g><svg viewBox="0 0 133.22886417499305 191.55844122715712" height="191.55844122715712" width="133.22886417499305"><g><svg viewBox="0 0 213.1584412271571 306.4823751875008" height="191.55844122715712" width="133.22886417499305"><g transform="matrix(1,0,0,1,0,165.10849655692493)"><svg viewBox="0 0 213.1584412271571 141.3738786305759" height="141.3738786305759" width="213.1584412271571"><g id="textblocktransform"><svg viewBox="0 0 213.1584412271571 141.3738786305759" height="141.3738786305759" width="213.1584412271571" id="textblock"><g><svg viewBox="0 0 213.1584412271571 141.3738786305759" height="141.3738786305759" width="213.1584412271571"><g transform="matrix(1,0,0,1,0,0)"><svg width="213.1584412271571" viewBox="0.800000011920929 -31.950000762939453 48.54999923706055 32.20000076293945" height="141.3738786305759" data-palette-color="#ffffff"><path d="M26.4-0.75Q25.75-1.6 25.3-2.63 24.85-3.65 24.35-5.1L24.35-5.1Q24.25-5.35 23.78-6.6 23.3-7.85 22.7-8.75L22.7-8.75Q19.55-8.3 17.55-8.3L17.55-8.3Q16.45-8.3 15.13-8.38 13.8-8.45 13.15-8.45L13.15-8.45Q10.65-8.65 9.15-8.65L9.15-8.65Q8.55-7.85 8.13-6.95 7.7-6.05 7.05-4.25L7.05-4.25Q6.15-1.65 5.5-0.55L5.5-0.55Q5.05 0.2 3.75 0.2L3.75 0.2Q2.65 0.2 1.73-0.28 0.8-0.75 0.8-1.6L0.8-1.6Q1.2-3.5 2.08-5.63 2.95-7.75 4.6-11.3L4.6-11.3 6.6-16.2Q8.25-20.4 9.63-23.4 11-26.4 13.25-30.5L13.25-30.5Q13.55-31.1 14.25-31.53 14.95-31.95 15.8-31.95L15.8-31.95Q16.75-31.95 17.18-31.83 17.6-31.7 17.85-31.43 18.1-31.15 18.6-30.3L18.6-30.3Q20.3-27.65 21.53-24.85 22.75-22.05 24.65-17.1L24.65-17.1 25.7-14.45Q27.1-10.85 28.13-8.43 29.15-6 30.4-4L30.4-4Q31.2-2.7 31.2-2.2L31.2-2.2Q31.2-1 30.48-0.38 29.75 0.25 28.6 0.25L28.6 0.25Q27.15 0.25 26.4-0.75L26.4-0.75ZM21.25-12.85Q20.45-14.55 18.95-18.75L18.95-18.75Q17.4-23.25 15.85-25.9L15.85-25.9Q14.9-23.5 13.05-19.7L13.05-19.7Q11.8-17.35 10.2-12.9L10.2-12.9Q13.4-12.5 17.1-12.5L17.1-12.5Q19.75-12.5 21.25-12.85L21.25-12.85ZM37.05-17.1L34.65-17.3Q33.95-17.4 33.52-17.9 33.1-18.4 33.1-19.1L33.1-19.1Q33.1-19.45 33.27-19.85 33.45-20.25 33.8-20.55L33.8-20.55Q34.45-21.2 37.3-21.2L37.3-21.2Q37.7-23.15 37.7-25.15L37.7-25.15Q37.7-25.9 37.65-26.45 37.6-27 37.6-27.3L37.6-27.3Q37.6-28.4 38.42-28.95 39.25-29.5 40.3-29.5L40.3-29.5Q41.6-29.5 42.07-28.85 42.55-28.2 42.55-26.45L42.55-26.45Q42.55-23.85 42.1-21.35L42.1-21.35Q42.9-21.35 44.3-21.45L44.3-21.45Q46.2-21.55 47.05-21.55L47.05-21.55Q47.9-21.55 48.52-21.13 49.15-20.7 49.15-19.95L49.15-19.95Q49.15-18 47.4-17.65L47.4-17.65Q45.55-17.2 41.65-17.1L41.65-17.1Q41.5-15.15 41.5-12.85L41.5-12.85Q41.5-9.25 41.95-6.95L41.95-6.95Q42.25-5.35 42.97-4.63 43.7-3.9 45.15-3.9L45.15-3.9Q46-3.9 46.9-4.35L46.9-4.35Q47.5-4.7 48-4.7L48-4.7Q48.7-4.7 49.02-4.25 49.35-3.8 49.35-3.05L49.35-3.05Q49.35-1.65 47.85-0.73 46.35 0.2 44 0.2L44 0.2Q42.55 0.2 41.07-0.5 39.6-1.2 38.6-2.25L38.6-2.25Q38.45-2.4 38.05-3.4 37.65-4.4 37.35-5.55L37.35-5.55Q36.85-7.9 36.85-12.15L36.85-12.15Q36.85-14 37.05-17.1L37.05-17.1Z" opacity="1" transform="matrix(1,0,0,1,0,0)" fill="#ffffff" class="undefined-text-0" data-fill-palette-color="quaternary" id="text-0"></path></svg></g></svg></g></svg></g></svg></g><g transform="matrix(1,0,0,1,40.713262274387006,0)"><svg viewBox="0 0 131.7319166783831 131.7335167853331" height="131.7335167853331" width="131.7319166783831"><g><svg xmlns="http://www.w3.org/2000/svg" xmlns:xlink="http://www.w3.org/1999/xlink" version="1.1" x="0" y="0" viewBox="5.412825107574463 5.195577621459961 79.76930236816406 79.77027130126953" enable-background="new 0 0 90 90" xml:space="preserve" height="131.7335167853331" width="131.7319166783831" class="icon-icon-0" data-fill-palette-color="quaternary" id="icon-0"><path d="M54.624 83.27c-10.792 1.801-22.246-1.411-30.727-8.272-8.062-6.522-13.088-16.744-12.728-27.17 0.349-10.096 5.499-20.182 14.078-25.707 8.769-5.647 20.783-5.62 29.498 0.129 8.154 5.379 12.661 15.857 9.907 25.391-1.424 4.931-4.572 9.475-9.052 12.082-4.663 2.714-10.561 3.268-15.615 1.341-4.544-1.733-8.418-5.448-9.851-10.154-1.47-4.826-0.243-10.416 3.327-14.027 3.452-3.492 8.998-4.743 13.484-2.567 4.259 2.065 6.884 7.148 5.307 11.755-0.85 2.483-2.859 4.611-5.423 5.317-2.69 0.741-5.774-0.221-7.439-2.493-1.629-2.222-1.495-5.503 0.597-7.389 1.054-0.95 2.599-1.429 3.984-1.015 0.41 0.122 2.233 0.566 2.058 1.209 0.087-0.652-1.341-0.82-1.755-0.934-1.29-0.356-2.733 0.004-3.719 0.904-1.739 1.586-1.995 4.459-0.597 6.34 1.417 1.906 4.102 2.721 6.348 1.971 2.287-0.765 3.875-3.013 4.245-5.344 0.746-4.703-3.812-8.759-8.323-8.569-4.774 0.201-8.548 4.373-9.111 8.971-1.056 8.621 8.8 14.488 16.466 12.536 8.546-2.177 12.86-12.372 10.766-20.465-2.34-9.045-11.891-14.664-20.877-14.543-9.785 0.131-18.28 7.23-21.955 16.011-4.038 9.649-2.194 21.17 4.201 29.364 6.485 8.309 16.93 13.113 27.352 13.664 5.766 0.305 11.749-0.537 17.004-3.006 4.955-2.328 8.907-6.258 11.976-10.734 6.303-9.194 8.662-20.938 6.135-31.824C79.845 17.355 61.052 3.689 41.936 5.329 23.164 6.939 7.154 22.991 5.551 41.756c-0.918 10.74 2.777 21.76 9.928 29.817 7.078 7.976 17.424 12.875 28.071 13.353 6.118 0.275 12.303-0.876 17.903-3.359-2.472 0.844-4.993 1.695-7.622 1.838 0.506-0.028 0.982-0.246 1.492-0.242-1.79-0.014-3.465 0.776-5.242 0.87 1.034-0.055 2.103-0.271 3.095-0.566 0.337-0.101 1.458-0.578 1.755-0.242-0.207-0.235-1.358 0.182-1.613 0.243-0.926 0.221-1.953 0.452-2.902 0.51 0.426-0.026 4.536-0.711 4.53-0.755 0.008 0.065-4.022 0.607-4.613 0.769 0.714-0.196 1.505-0.245 2.235-0.367 0.292-0.048 2.164-0.591 2.374-0.402C54.91 83.194 54.661 83.264 54.624 83.27 43.928 85.055 57.114 82.88 54.624 83.27z" fill="#ffffff" data-fill-palette-color="quaternary"></path></svg></g></svg></g><g></g></svg></g></svg></g></svg></g></svg></g><defs></defs></svg><rect width="333.90454557049503" height="333.90454557049503" fill="none" stroke="none" visibility="hidden"></rect></g></svg></g></svg>